<?xml version="1.0" encoding="utf-8"?>
<!-- Generator: Adobe Illustrator 16.0.0, SVG Export Plug-In . SVG Version: 6.00 Build 0)  -->
<!DOCTYPE svg PUBLIC "-//W3C//DTD SVG 1.1//EN" "http://www.w3.org/Graphics/SVG/1.1/DTD/svg11.dtd">
<svg version="1.1" id="Capa_1" xmlns="http://www.w3.org/2000/svg" xmlns:xlink="http://www.w3.org/1999/xlink" x="0px" y="0px"
	 width="240.38px" height="73.213px" viewBox="0 0 240.38 73.213" enable-background="new 0 0 240.38 73.213" xml:space="preserve">
<g>
	<polyline fill="#E2E0DE" points="31.98,35.332 43.136,25.41 32.492,27.734 21.335,37.66 	"/>
	<g>
		
			<linearGradient id="SVGID_1_" gradientUnits="userSpaceOnUse" x1="574.5708" y1="-561.4839" x2="574.5708" y2="-592.7076" gradientTransform="matrix(0.9769 -0.2136 0.2136 0.9769 -411.7418 721.3043)">
			<stop  offset="0" style="stop-color:#FFFFFF"/>
			<stop  offset="1" style="stop-color:#F1EFEA"/>
		</linearGradient>
		<path fill="url(#SVGID_1_)" d="M26.691,11.363c-0.109,0.016-0.219,0.039-0.324,0.059c-1.66,8.637-3.316,17.273-5.031,26.238
			c3.715-0.813,7.098-1.547,10.645-2.328c0,0-1.59-7.137-1.605-7.129C29.117,22.461,27.906,16.914,26.691,11.363z"/>
		
			<linearGradient id="SVGID_2_" gradientUnits="userSpaceOnUse" x1="587.5879" y1="-561.4917" x2="587.5879" y2="-592.7051" gradientTransform="matrix(0.9769 -0.2136 0.2136 0.9769 -411.7418 721.3043)">
			<stop  offset="0" style="stop-color:#FFFFFF"/>
			<stop  offset="1" style="stop-color:#F1EFEA"/>
		</linearGradient>
		<path fill="url(#SVGID_2_)" d="M34.05,34.879c0,0,0.016,0,0.023-0.004c1.262,5.762,2.477,11.328,3.695,16.902
			c0.102,0,0.223-0.004,0.32-0.02c1.66-8.672,3.309-17.34,5.047-26.348c-3.785,0.828-7.16,1.566-10.645,2.324L34.05,34.879z"/>
	</g>
	<polyline opacity="0.2" fill="#5D5D5D" points="32.738,34.66 33.82,33.727 37.769,51.777 	"/>
	<polygon opacity="0.4" fill="#5D5D5D" points="21.335,37.66 20.318,35.117 26.367,11.422 	"/>
	<path opacity="0.2" fill="#5D5D5D" d="M31.226,59.207C14.566,55.27,4.363,38.582,8.296,21.926C10.781,11.418,18.441,3.461,27.933,0
		C15.851,1.922,5.464,10.848,2.488,23.43c-3.934,16.66,6.273,33.344,22.934,37.285c6.125,1.449,12.242,0.953,17.73-1.063
		C39.296,60.258,35.265,60.164,31.226,59.207z"/>
	<g>
		<path fill="#FFFFFF" d="M80.561,25.154c0-0.938,0.299-1.641,0.896-2.109s1.248-0.703,1.951-0.703c0.352,0,0.691,0.059,1.02,0.176
			s0.621,0.293,0.879,0.527s0.469,0.527,0.633,0.879s0.246,0.762,0.246,1.23v44.438c0,0.938-0.305,1.646-0.914,2.127
			s-1.266,0.721-1.969,0.721s-1.336-0.229-1.898-0.686s-0.844-1.178-0.844-2.162V25.154z"/>
		<path fill="#FFFFFF" d="M102.035,25.471c0,0.867-0.334,1.623-1.002,2.268s-1.611,0.967-2.83,0.967
			c-1.195,0-2.127-0.322-2.795-0.967s-1.002-1.4-1.002-2.268s0.334-1.623,1.002-2.268s1.611-0.967,2.83-0.967
			c1.195,0,2.127,0.322,2.795,0.967S102.035,24.604,102.035,25.471z M95.426,40.412c0-0.938,0.299-1.641,0.896-2.109
			S97.57,37.6,98.273,37.6c0.352,0,0.691,0.059,1.02,0.176s0.621,0.293,0.879,0.527s0.469,0.527,0.633,0.879s0.246,0.762,0.246,1.23
			v29.18c0,0.938-0.305,1.646-0.914,2.127s-1.266,0.721-1.969,0.721s-1.336-0.229-1.898-0.686s-0.844-1.178-0.844-2.162V40.412z"/>
		<path fill="#FFFFFF" d="M115.035,69.943c-0.047,0.82-0.352,1.441-0.914,1.863s-1.172,0.633-1.828,0.633
			c-0.68,0-1.295-0.217-1.846-0.65s-0.826-1.096-0.826-1.986V24.908c0-0.844,0.299-1.482,0.896-1.916s1.248-0.65,1.951-0.65
			s1.342,0.211,1.916,0.633s0.861,1.066,0.861,1.934V43.26c0.633-1.102,1.412-2.057,2.338-2.865s1.934-1.477,3.023-2.004
			s2.238-0.92,3.445-1.178s2.408-0.387,3.604-0.387c2.578,0,4.799,0.498,6.662,1.494s3.392,2.326,4.587,3.99s2.08,3.58,2.654,5.748
			s0.861,4.436,0.861,6.803c0,2.25-0.281,4.477-0.844,6.68s-1.43,4.166-2.602,5.889s-2.677,3.117-4.517,4.184s-4.037,1.6-6.592,1.6
			c-2.625,0-5.027-0.545-7.207-1.635s-4.055-2.83-5.625-5.221V69.943z M115.246,54.369c0,1.992,0.188,3.867,0.563,5.625
			s1.002,3.287,1.881,4.588s2.051,2.338,3.516,3.111s3.299,1.16,5.502,1.16c1.313,0,2.461-0.205,3.445-0.615s1.84-0.973,2.566-1.688
			s1.33-1.541,1.811-2.479s0.861-1.928,1.143-2.971s0.48-2.121,0.598-3.234s0.176-2.209,0.176-3.287c0-1.641-0.176-3.27-0.527-4.887
			s-0.926-3.053-1.723-4.307s-1.857-2.268-3.182-3.041s-2.947-1.16-4.869-1.16c-1.992,0-3.68,0.357-5.063,1.072
			s-2.508,1.676-3.375,2.883s-1.494,2.613-1.881,4.219S115.246,52.635,115.246,54.369z"/>
		<path fill="#FFFFFF" d="M179.802,51.074c0.094,0.529,0.008,1.027-0.254,1.49c-0.264,0.463-0.801,0.766-1.607,0.908l-24.754,4.365
			c0.459,2.203,1.109,4.033,1.949,5.492s1.912,2.607,3.215,3.449s2.676,1.402,4.117,1.684s2.959,0.281,4.551,0.002
			c1.684-0.297,3.34-0.904,4.963-1.822c1.623-0.916,3.184-2.113,4.686-3.592c0.221-0.23,0.447-0.4,0.678-0.512
			c0.23-0.113,0.449-0.188,0.656-0.225c0.531-0.094,0.988,0.006,1.373,0.295c0.383,0.289,0.619,0.676,0.703,1.16
			c0.045,0.254,0.035,0.535-0.029,0.844s-0.213,0.615-0.445,0.918c-0.789,1.066-1.662,2.012-2.623,2.836s-1.975,1.533-3.035,2.125
			s-2.152,1.08-3.273,1.469c-1.123,0.389-2.236,0.68-3.346,0.875c-2.332,0.412-4.602,0.389-6.813-0.066
			c-2.209-0.455-4.219-1.32-6.025-2.596c-1.809-1.275-3.354-2.949-4.635-5.02s-2.166-4.492-2.654-7.262
			c-0.418-2.377-0.467-4.705-0.143-6.988c0.322-2.283,1.031-4.371,2.125-6.266s2.578-3.506,4.449-4.836s4.145-2.23,6.822-2.703
			c2.793-0.492,5.287-0.492,7.48,0.002s4.086,1.375,5.678,2.641s2.896,2.869,3.918,4.807
			C178.548,46.486,179.306,48.662,179.802,51.074z M174.073,50.371c-0.4-1.596-0.967-3.02-1.697-4.271
			c-0.734-1.25-1.635-2.281-2.705-3.092c-1.072-0.811-2.307-1.361-3.701-1.65s-2.959-0.281-4.689,0.023
			c-1.502,0.266-2.824,0.795-3.969,1.592s-2.078,1.777-2.801,2.939s-1.246,2.451-1.568,3.865c-0.322,1.412-0.41,2.867-0.266,4.365
			L174.073,50.371z"/>
		<path fill="#FFFFFF" d="M207.622,48.252c0-1.336-0.193-2.461-0.58-3.375s-0.932-1.641-1.635-2.18s-1.547-0.926-2.531-1.16
			s-2.074-0.352-3.27-0.352s-2.268,0.064-3.217,0.193s-1.822,0.346-2.619,0.65s-1.541,0.627-2.232,0.967s-1.389,0.721-2.092,1.143
			c-0.398,0.234-0.809,0.352-1.23,0.352c-0.586,0-1.078-0.199-1.477-0.598s-0.598-0.867-0.598-1.406s0.234-1.031,0.703-1.477
			c1.453-1.406,3.281-2.455,5.484-3.146s4.688-1.037,7.453-1.037c2.039,0,3.871,0.229,5.502,0.686
			c1.629,0.457,3.023,1.172,4.184,2.145s2.051,2.209,2.672,3.709c0.619,1.5,0.932,3.305,0.932,5.414l-0.035,21.164
			c0,0.82-0.287,1.441-0.861,1.863c-0.576,0.422-1.201,0.633-1.881,0.633c-0.656,0-1.262-0.193-1.811-0.58
			c-0.551-0.387-0.826-0.99-0.826-1.811v-3.234c-0.492,1.031-1.143,1.945-1.951,2.742s-1.723,1.465-2.742,2.004
			s-2.123,0.949-3.305,1.23c-1.184,0.281-2.373,0.422-3.568,0.422c-1.688,0-3.258-0.229-4.711-0.686s-2.719-1.137-3.797-2.039
			s-1.928-2.004-2.549-3.305s-0.932-2.783-0.932-4.447c0-2.156,0.475-3.967,1.424-5.432s2.279-2.648,3.99-3.551
			s3.768-1.553,6.17-1.951s5.057-0.598,7.963-0.598c0.609,0,1.26,0.012,1.951,0.035c0.689,0.023,1.365,0.047,2.021,0.07V48.252z
			 M207.587,55.424c-1.055,0.047-2.221,0.064-3.498,0.053c-1.279-0.012-2.58,0.018-3.902,0.088c-1.324,0.07-2.607,0.223-3.85,0.457
			s-2.35,0.609-3.322,1.125s-1.752,1.213-2.338,2.092s-0.879,1.998-0.879,3.357c0,1.078,0.199,1.998,0.598,2.76
			s0.938,1.4,1.617,1.916s1.482,0.902,2.408,1.16s1.902,0.398,2.936,0.422c1.383-0.023,2.684-0.258,3.902-0.703
			c1.217-0.445,2.285-1.078,3.199-1.898s1.646-1.875,2.197-3.164c0.549-1.289,0.861-2.824,0.932-4.605V55.424z"/>
		<path fill="#FFFFFF" d="M224.876,37.6l0.457-9.914c0.047-0.75,0.357-1.336,0.932-1.758s1.189-0.633,1.846-0.633
			c0.586,0,1.107,0.188,1.564,0.563s0.686,0.961,0.686,1.758V37.6h6.293c0.75,0,1.313,0.223,1.688,0.668s0.563,0.938,0.563,1.477
			s-0.188,1.02-0.563,1.441s-0.938,0.633-1.688,0.633h-6.293v16.313c0,2.109,0.023,3.838,0.07,5.186s0.211,2.438,0.492,3.27
			s0.715,1.418,1.301,1.758s1.406,0.51,2.461,0.51c0.609,0,1.254-0.053,1.934-0.158s1.254-0.158,1.723-0.158
			c0.68,0,1.189,0.205,1.529,0.615s0.51,0.814,0.51,1.213c0,0.609-0.211,1.096-0.633,1.459s-0.979,0.65-1.67,0.861
			s-1.418,0.352-2.18,0.422s-1.424,0.105-1.986,0.105c-1.57,0-2.93-0.205-4.078-0.615s-2.104-1.084-2.865-2.021
			s-1.324-2.168-1.688-3.691s-0.545-3.41-0.545-5.66V41.818h-4.254c-0.75,0-1.318-0.217-1.705-0.65s-0.58-0.92-0.58-1.459
			s0.193-1.025,0.58-1.459s0.955-0.65,1.705-0.65H224.876z"/>
	</g>
	<polyline opacity="0.3" fill="#D3D2D1" points="33.57,33.941 31.777,28.367 32.492,27.734 33.82,33.727 	"/>
	<path fill="none" stroke="#FFFFFF" stroke-width="2" stroke-linecap="round" stroke-linejoin="round" stroke-miterlimit="10" d="
		M61.994,22.771c-3.75-9.969-9.389-17.805-22.5-20.906C22.833-2.076,5.783,7.842,1.843,24.498
		c-3.936,16.66,6.271,33.344,22.932,37.285c13.637,3.223,26.053-2.459,34.803-14.459c1.166-1.803,7.572-9.365,9.932-8.973
		C66.011,37.77,61.994,22.771,61.994,22.771z"/>
</g>
</svg>
